# xmcd
#
# Track frame offsets:
#	150
#	18087
#	23106
#	34832
#	40562
#	50561
#	54283
#	70151
#	73027
#	85934
#	96959
#	104039
#	115338
#	121027
#	145050
#	159094
#
# Disc length: 2336 seconds
#
# Revision: 0
# Processed by: cddbd v1.4PL0 Copyright (c) Steve Scherf et al.
# Submitted via: dBpowerAMP V4.0
#
DISCID=ca091e10
DTITLE=Jerry Clower - Starke Raving!
DYEAR=1984
DGENRE=Comedy
TTITLE0=I Love Small Towns
TTITLE1=Green Eye Lids
TTITLE2=Room 411
TTITLE3=Big City Vocabulary
TTITLE4=God's Gonna Take Care of Me
TTITLE5=Joggers
TTITLE6=My Friend Chief Hill
TTITLE7=Word Processing
TTITLE8=Uncle Versie's Bond
TTITLE9=Bill's Vacation
TTITLE10=My Grandson Jayree
TTITLE11=The Blessing of Giving
TTITLE12=How to Order Wine
TTITLE13=Crack, W.L. And Rover 
TTITLE14=Snook's Prey
TTITLE15=Owen Cooper Said
EXTD=
EXTT0=
EXTT1=
EXTT2=
EXTT3=
EXTT4=
EXTT5=
EXTT6=
EXTT7=
EXTT8=
EXTT9=
EXTT10=
EXTT11=
EXTT12=
EXTT13=
EXTT14=
EXTT15=
PLAYORDER=
